# LegoLikeBrick_2x2_Detailed_PivotCenter
mtllib LegoLikeBrick_2x2_Detailed_PivotCenter.mtl
usemtl BrickMaterial
v 1.000000 -0.710000 -1.000000
v 1.000000 0.490000 -1.000000
v 1.000000 0.490000 1.000000
v 1.000000 -0.710000 1.000000
v -1.000000 -0.710000 1.000000
v -1.000000 0.490000 1.000000
v -1.000000 0.490000 -1.000000
v -1.000000 -0.710000 -1.000000
v -1.000000 -0.710000 1.000000
v 1.000000 -0.710000 1.000000
v 1.000000 0.490000 1.000000
v -1.000000 0.490000 1.000000
v 1.000000 -0.710000 -1.000000
v -1.000000 -0.710000 -1.000000
v -1.000000 0.490000 -1.000000
v 1.000000 0.490000 -1.000000
v -1.000000 0.490000 -1.000000
v -1.000000 0.490000 1.000000
v 1.000000 0.490000 1.000000
v 1.000000 0.490000 -1.000000
v 0.840000 -0.710000 0.840000
v 0.840000 0.270000 0.840000
v 0.840000 0.270000 -0.840000
v 0.840000 -0.710000 -0.840000
v -0.840000 -0.710000 -0.840000
v -0.840000 0.270000 -0.840000
v -0.840000 0.270000 0.840000
v -0.840000 -0.710000 0.840000
v 0.840000 -0.710000 0.840000
v -0.840000 -0.710000 0.840000
v -0.840000 0.270000 0.840000
v 0.840000 0.270000 0.840000
v -0.840000 -0.710000 -0.840000
v 0.840000 -0.710000 -0.840000
v 0.840000 0.270000 -0.840000
v -0.840000 0.270000 -0.840000
v -0.840000 0.270000 -0.840000
v 0.840000 0.270000 -0.840000
v 0.840000 0.270000 0.840000
v -0.840000 0.270000 0.840000
v -1.000000 -0.710000 1.000000
v -0.840000 -0.710000 0.840000
v 0.840000 -0.710000 0.840000
v 1.000000 -0.710000 1.000000
v 1.000000 -0.710000 -1.000000
v 0.840000 -0.710000 -0.840000
v -0.840000 -0.710000 -0.840000
v -1.000000 -0.710000 -1.000000
v -1.000000 -0.710000 -1.000000
v -0.840000 -0.710000 -0.840000
v -0.840000 -0.710000 0.840000
v -1.000000 -0.710000 1.000000
v 1.000000 -0.710000 1.000000
v 0.840000 -0.710000 0.840000
v 0.840000 -0.710000 -0.840000
v 1.000000 -0.710000 -1.000000
v 0.460000 -0.710000 0.000000
v 0.460000 0.250000 0.000000
v 0.448467 0.250000 0.102360
v 0.448467 -0.710000 0.102360
v 0.448467 -0.710000 0.102360
v 0.448467 0.250000 0.102360
v 0.414446 0.250000 0.199587
v 0.414446 -0.710000 0.199587
v 0.414446 -0.710000 0.199587
v 0.414446 0.250000 0.199587
v 0.359642 0.250000 0.286805
v 0.359642 -0.710000 0.286805
v 0.359642 -0.710000 0.286805
v 0.359642 0.250000 0.286805
v 0.286805 0.250000 0.359642
v 0.286805 -0.710000 0.359642
v 0.286805 -0.710000 0.359642
v 0.286805 0.250000 0.359642
v 0.199587 0.250000 0.414446
v 0.199587 -0.710000 0.414446
v 0.199587 -0.710000 0.414446
v 0.199587 0.250000 0.414446
v 0.102360 0.250000 0.448467
v 0.102360 -0.710000 0.448467
v 0.102360 -0.710000 0.448467
v 0.102360 0.250000 0.448467
v 0.000000 0.250000 0.460000
v 0.000000 -0.710000 0.460000
v 0.000000 -0.710000 0.460000
v 0.000000 0.250000 0.460000
v -0.102360 0.250000 0.448467
v -0.102360 -0.710000 0.448467
v -0.102360 -0.710000 0.448467
v -0.102360 0.250000 0.448467
v -0.199587 0.250000 0.414446
v -0.199587 -0.710000 0.414446
v -0.199587 -0.710000 0.414446
v -0.199587 0.250000 0.414446
v -0.286805 0.250000 0.359642
v -0.286805 -0.710000 0.359642
v -0.286805 -0.710000 0.359642
v -0.286805 0.250000 0.359642
v -0.359642 0.250000 0.286805
v -0.359642 -0.710000 0.286805
v -0.359642 -0.710000 0.286805
v -0.359642 0.250000 0.286805
v -0.414446 0.250000 0.199587
v -0.414446 -0.710000 0.199587
v -0.414446 -0.710000 0.199587
v -0.414446 0.250000 0.199587
v -0.448467 0.250000 0.102360
v -0.448467 -0.710000 0.102360
v -0.448467 -0.710000 0.102360
v -0.448467 0.250000 0.102360
v -0.460000 0.250000 0.000000
v -0.460000 -0.710000 0.000000
v -0.460000 -0.710000 0.000000
v -0.460000 0.250000 0.000000
v -0.448467 0.250000 -0.102360
v -0.448467 -0.710000 -0.102360
v -0.448467 -0.710000 -0.102360
v -0.448467 0.250000 -0.102360
v -0.414446 0.250000 -0.199587
v -0.414446 -0.710000 -0.199587
v -0.414446 -0.710000 -0.199587
v -0.414446 0.250000 -0.199587
v -0.359642 0.250000 -0.286805
v -0.359642 -0.710000 -0.286805
v -0.359642 -0.710000 -0.286805
v -0.359642 0.250000 -0.286805
v -0.286805 0.250000 -0.359642
v -0.286805 -0.710000 -0.359642
v -0.286805 -0.710000 -0.359642
v -0.286805 0.250000 -0.359642
v -0.199587 0.250000 -0.414446
v -0.199587 -0.710000 -0.414446
v -0.199587 -0.710000 -0.414446
v -0.199587 0.250000 -0.414446
v -0.102360 0.250000 -0.448467
v -0.102360 -0.710000 -0.448467
v -0.102360 -0.710000 -0.448467
v -0.102360 0.250000 -0.448467
v -0.000000 0.250000 -0.460000
v -0.000000 -0.710000 -0.460000
v -0.000000 -0.710000 -0.460000
v -0.000000 0.250000 -0.460000
v 0.102360 0.250000 -0.448467
v 0.102360 -0.710000 -0.448467
v 0.102360 -0.710000 -0.448467
v 0.102360 0.250000 -0.448467
v 0.199587 0.250000 -0.414446
v 0.199587 -0.710000 -0.414446
v 0.199587 -0.710000 -0.414446
v 0.199587 0.250000 -0.414446
v 0.286805 0.250000 -0.359642
v 0.286805 -0.710000 -0.359642
v 0.286805 -0.710000 -0.359642
v 0.286805 0.250000 -0.359642
v 0.359642 0.250000 -0.286805
v 0.359642 -0.710000 -0.286805
v 0.359642 -0.710000 -0.286805
v 0.359642 0.250000 -0.286805
v 0.414446 0.250000 -0.199587
v 0.414446 -0.710000 -0.199587
v 0.414446 -0.710000 -0.199587
v 0.414446 0.250000 -0.199587
v 0.448467 0.250000 -0.102360
v 0.448467 -0.710000 -0.102360
v 0.448467 -0.710000 -0.102360
v 0.448467 0.250000 -0.102360
v 0.460000 0.250000 -0.000000
v 0.460000 -0.710000 -0.000000
v 0.320000 -0.710000 0.000000
v 0.311977 -0.710000 0.071207
v 0.311977 0.250000 0.071207
v 0.320000 0.250000 0.000000
v 0.311977 -0.710000 0.071207
v 0.288310 -0.710000 0.138843
v 0.288310 0.250000 0.138843
v 0.311977 0.250000 0.071207
v 0.288310 -0.710000 0.138843
v 0.250186 -0.710000 0.199517
v 0.250186 0.250000 0.199517
v 0.288310 0.250000 0.138843
v 0.250186 -0.710000 0.199517
v 0.199517 -0.710000 0.250186
v 0.199517 0.250000 0.250186
v 0.250186 0.250000 0.199517
v 0.199517 -0.710000 0.250186
v 0.138843 -0.710000 0.288310
v 0.138843 0.250000 0.288310
v 0.199517 0.250000 0.250186
v 0.138843 -0.710000 0.288310
v 0.071207 -0.710000 0.311977
v 0.071207 0.250000 0.311977
v 0.138843 0.250000 0.288310
v 0.071207 -0.710000 0.311977
v 0.000000 -0.710000 0.320000
v 0.000000 0.250000 0.320000
v 0.071207 0.250000 0.311977
v 0.000000 -0.710000 0.320000
v -0.071207 -0.710000 0.311977
v -0.071207 0.250000 0.311977
v 0.000000 0.250000 0.320000
v -0.071207 -0.710000 0.311977
v -0.138843 -0.710000 0.288310
v -0.138843 0.250000 0.288310
v -0.071207 0.250000 0.311977
v -0.138843 -0.710000 0.288310
v -0.199517 -0.710000 0.250186
v -0.199517 0.250000 0.250186
v -0.138843 0.250000 0.288310
v -0.199517 -0.710000 0.250186
v -0.250186 -0.710000 0.199517
v -0.250186 0.250000 0.199517
v -0.199517 0.250000 0.250186
v -0.250186 -0.710000 0.199517
v -0.288310 -0.710000 0.138843
v -0.288310 0.250000 0.138843
v -0.250186 0.250000 0.199517
v -0.288310 -0.710000 0.138843
v -0.311977 -0.710000 0.071207
v -0.311977 0.250000 0.071207
v -0.288310 0.250000 0.138843
v -0.311977 -0.710000 0.071207
v -0.320000 -0.710000 0.000000
v -0.320000 0.250000 0.000000
v -0.311977 0.250000 0.071207
v -0.320000 -0.710000 0.000000
v -0.311977 -0.710000 -0.071207
v -0.311977 0.250000 -0.071207
v -0.320000 0.250000 0.000000
v -0.311977 -0.710000 -0.071207
v -0.288310 -0.710000 -0.138843
v -0.288310 0.250000 -0.138843
v -0.311977 0.250000 -0.071207
v -0.288310 -0.710000 -0.138843
v -0.250186 -0.710000 -0.199517
v -0.250186 0.250000 -0.199517
v -0.288310 0.250000 -0.138843
v -0.250186 -0.710000 -0.199517
v -0.199517 -0.710000 -0.250186
v -0.199517 0.250000 -0.250186
v -0.250186 0.250000 -0.199517
v -0.199517 -0.710000 -0.250186
v -0.138843 -0.710000 -0.288310
v -0.138843 0.250000 -0.288310
v -0.199517 0.250000 -0.250186
v -0.138843 -0.710000 -0.288310
v -0.071207 -0.710000 -0.311977
v -0.071207 0.250000 -0.311977
v -0.138843 0.250000 -0.288310
v -0.071207 -0.710000 -0.311977
v -0.000000 -0.710000 -0.320000
v -0.000000 0.250000 -0.320000
v -0.071207 0.250000 -0.311977
v -0.000000 -0.710000 -0.320000
v 0.071207 -0.710000 -0.311977
v 0.071207 0.250000 -0.311977
v -0.000000 0.250000 -0.320000
v 0.071207 -0.710000 -0.311977
v 0.138843 -0.710000 -0.288310
v 0.138843 0.250000 -0.288310
v 0.071207 0.250000 -0.311977
v 0.138843 -0.710000 -0.288310
v 0.199517 -0.710000 -0.250186
v 0.199517 0.250000 -0.250186
v 0.138843 0.250000 -0.288310
v 0.199517 -0.710000 -0.250186
v 0.250186 -0.710000 -0.199517
v 0.250186 0.250000 -0.199517
v 0.199517 0.250000 -0.250186
v 0.250186 -0.710000 -0.199517
v 0.288310 -0.710000 -0.138843
v 0.288310 0.250000 -0.138843
v 0.250186 0.250000 -0.199517
v 0.288310 -0.710000 -0.138843
v 0.311977 -0.710000 -0.071207
v 0.311977 0.250000 -0.071207
v 0.288310 0.250000 -0.138843
v 0.311977 -0.710000 -0.071207
v 0.320000 -0.710000 -0.000000
v 0.320000 0.250000 -0.000000
v 0.311977 0.250000 -0.071207
v -0.180000 0.490000 -0.500000
v -0.180000 0.710000 -0.500000
v -0.190904 0.710000 -0.417178
v -0.190904 0.490000 -0.417178
v -0.190904 0.490000 -0.417178
v -0.190904 0.710000 -0.417178
v -0.222872 0.710000 -0.340000
v -0.222872 0.490000 -0.340000
v -0.222872 0.490000 -0.340000
v -0.222872 0.710000 -0.340000
v -0.273726 0.710000 -0.273726
v -0.273726 0.490000 -0.273726
v -0.273726 0.490000 -0.273726
v -0.273726 0.710000 -0.273726
v -0.340000 0.710000 -0.222872
v -0.340000 0.490000 -0.222872
v -0.340000 0.490000 -0.222872
v -0.340000 0.710000 -0.222872
v -0.417178 0.710000 -0.190904
v -0.417178 0.490000 -0.190904
v -0.417178 0.490000 -0.190904
v -0.417178 0.710000 -0.190904
v -0.500000 0.710000 -0.180000
v -0.500000 0.490000 -0.180000
v -0.500000 0.490000 -0.180000
v -0.500000 0.710000 -0.180000
v -0.582822 0.710000 -0.190904
v -0.582822 0.490000 -0.190904
v -0.582822 0.490000 -0.190904
v -0.582822 0.710000 -0.190904
v -0.660000 0.710000 -0.222872
v -0.660000 0.490000 -0.222872
v -0.660000 0.490000 -0.222872
v -0.660000 0.710000 -0.222872
v -0.726274 0.710000 -0.273726
v -0.726274 0.490000 -0.273726
v -0.726274 0.490000 -0.273726
v -0.726274 0.710000 -0.273726
v -0.777128 0.710000 -0.340000
v -0.777128 0.490000 -0.340000
v -0.777128 0.490000 -0.340000
v -0.777128 0.710000 -0.340000
v -0.809096 0.710000 -0.417178
v -0.809096 0.490000 -0.417178
v -0.809096 0.490000 -0.417178
v -0.809096 0.710000 -0.417178
v -0.820000 0.710000 -0.500000
v -0.820000 0.490000 -0.500000
v -0.820000 0.490000 -0.500000
v -0.820000 0.710000 -0.500000
v -0.809096 0.710000 -0.582822
v -0.809096 0.490000 -0.582822
v -0.809096 0.490000 -0.582822
v -0.809096 0.710000 -0.582822
v -0.777128 0.710000 -0.660000
v -0.777128 0.490000 -0.660000
v -0.777128 0.490000 -0.660000
v -0.777128 0.710000 -0.660000
v -0.726274 0.710000 -0.726274
v -0.726274 0.490000 -0.726274
v -0.726274 0.490000 -0.726274
v -0.726274 0.710000 -0.726274
v -0.660000 0.710000 -0.777128
v -0.660000 0.490000 -0.777128
v -0.660000 0.490000 -0.777128
v -0.660000 0.710000 -0.777128
v -0.582822 0.710000 -0.809096
v -0.582822 0.490000 -0.809096
v -0.582822 0.490000 -0.809096
v -0.582822 0.710000 -0.809096
v -0.500000 0.710000 -0.820000
v -0.500000 0.490000 -0.820000
v -0.500000 0.490000 -0.820000
v -0.500000 0.710000 -0.820000
v -0.417178 0.710000 -0.809096
v -0.417178 0.490000 -0.809096
v -0.417178 0.490000 -0.809096
v -0.417178 0.710000 -0.809096
v -0.340000 0.710000 -0.777128
v -0.340000 0.490000 -0.777128
v -0.340000 0.490000 -0.777128
v -0.340000 0.710000 -0.777128
v -0.273726 0.710000 -0.726274
v -0.273726 0.490000 -0.726274
v -0.273726 0.490000 -0.726274
v -0.273726 0.710000 -0.726274
v -0.222872 0.710000 -0.660000
v -0.222872 0.490000 -0.660000
v -0.222872 0.490000 -0.660000
v -0.222872 0.710000 -0.660000
v -0.190904 0.710000 -0.582822
v -0.190904 0.490000 -0.582822
v -0.190904 0.490000 -0.582822
v -0.190904 0.710000 -0.582822
v -0.180000 0.710000 -0.500000
v -0.180000 0.490000 -0.500000
v -0.500000 0.710000 -0.500000
v -0.180000 0.710000 -0.500000
v -0.190904 0.710000 -0.417178
v -0.222872 0.710000 -0.340000
v -0.273726 0.710000 -0.273726
v -0.340000 0.710000 -0.222872
v -0.417178 0.710000 -0.190904
v -0.500000 0.710000 -0.180000
v -0.582822 0.710000 -0.190904
v -0.660000 0.710000 -0.222872
v -0.726274 0.710000 -0.273726
v -0.777128 0.710000 -0.340000
v -0.809096 0.710000 -0.417178
v -0.820000 0.710000 -0.500000
v -0.809096 0.710000 -0.582822
v -0.777128 0.710000 -0.660000
v -0.726274 0.710000 -0.726274
v -0.660000 0.710000 -0.777128
v -0.582822 0.710000 -0.809096
v -0.500000 0.710000 -0.820000
v -0.417178 0.710000 -0.809096
v -0.340000 0.710000 -0.777128
v -0.273726 0.710000 -0.726274
v -0.222872 0.710000 -0.660000
v -0.190904 0.710000 -0.582822
v 0.820000 0.490000 -0.500000
v 0.820000 0.710000 -0.500000
v 0.809096 0.710000 -0.417178
v 0.809096 0.490000 -0.417178
v 0.809096 0.490000 -0.417178
v 0.809096 0.710000 -0.417178
v 0.777128 0.710000 -0.340000
v 0.777128 0.490000 -0.340000
v 0.777128 0.490000 -0.340000
v 0.777128 0.710000 -0.340000
v 0.726274 0.710000 -0.273726
v 0.726274 0.490000 -0.273726
v 0.726274 0.490000 -0.273726
v 0.726274 0.710000 -0.273726
v 0.660000 0.710000 -0.222872
v 0.660000 0.490000 -0.222872
v 0.660000 0.490000 -0.222872
v 0.660000 0.710000 -0.222872
v 0.582822 0.710000 -0.190904
v 0.582822 0.490000 -0.190904
v 0.582822 0.490000 -0.190904
v 0.582822 0.710000 -0.190904
v 0.500000 0.710000 -0.180000
v 0.500000 0.490000 -0.180000
v 0.500000 0.490000 -0.180000
v 0.500000 0.710000 -0.180000
v 0.417178 0.710000 -0.190904
v 0.417178 0.490000 -0.190904
v 0.417178 0.490000 -0.190904
v 0.417178 0.710000 -0.190904
v 0.340000 0.710000 -0.222872
v 0.340000 0.490000 -0.222872
v 0.340000 0.490000 -0.222872
v 0.340000 0.710000 -0.222872
v 0.273726 0.710000 -0.273726
v 0.273726 0.490000 -0.273726
v 0.273726 0.490000 -0.273726
v 0.273726 0.710000 -0.273726
v 0.222872 0.710000 -0.340000
v 0.222872 0.490000 -0.340000
v 0.222872 0.490000 -0.340000
v 0.222872 0.710000 -0.340000
v 0.190904 0.710000 -0.417178
v 0.190904 0.490000 -0.417178
v 0.190904 0.490000 -0.417178
v 0.190904 0.710000 -0.417178
v 0.180000 0.710000 -0.500000
v 0.180000 0.490000 -0.500000
v 0.180000 0.490000 -0.500000
v 0.180000 0.710000 -0.500000
v 0.190904 0.710000 -0.582822
v 0.190904 0.490000 -0.582822
v 0.190904 0.490000 -0.582822
v 0.190904 0.710000 -0.582822
v 0.222872 0.710000 -0.660000
v 0.222872 0.490000 -0.660000
v 0.222872 0.490000 -0.660000
v 0.222872 0.710000 -0.660000
v 0.273726 0.710000 -0.726274
v 0.273726 0.490000 -0.726274
v 0.273726 0.490000 -0.726274
v 0.273726 0.710000 -0.726274
v 0.340000 0.710000 -0.777128
v 0.340000 0.490000 -0.777128
v 0.340000 0.490000 -0.777128
v 0.340000 0.710000 -0.777128
v 0.417178 0.710000 -0.809096
v 0.417178 0.490000 -0.809096
v 0.417178 0.490000 -0.809096
v 0.417178 0.710000 -0.809096
v 0.500000 0.710000 -0.820000
v 0.500000 0.490000 -0.820000
v 0.500000 0.490000 -0.820000
v 0.500000 0.710000 -0.820000
v 0.582822 0.710000 -0.809096
v 0.582822 0.490000 -0.809096
v 0.582822 0.490000 -0.809096
v 0.582822 0.710000 -0.809096
v 0.660000 0.710000 -0.777128
v 0.660000 0.490000 -0.777128
v 0.660000 0.490000 -0.777128
v 0.660000 0.710000 -0.777128
v 0.726274 0.710000 -0.726274
v 0.726274 0.490000 -0.726274
v 0.726274 0.490000 -0.726274
v 0.726274 0.710000 -0.726274
v 0.777128 0.710000 -0.660000
v 0.777128 0.490000 -0.660000
v 0.777128 0.490000 -0.660000
v 0.777128 0.710000 -0.660000
v 0.809096 0.710000 -0.582822
v 0.809096 0.490000 -0.582822
v 0.809096 0.490000 -0.582822
v 0.809096 0.710000 -0.582822
v 0.820000 0.710000 -0.500000
v 0.820000 0.490000 -0.500000
v 0.500000 0.710000 -0.500000
v 0.820000 0.710000 -0.500000
v 0.809096 0.710000 -0.417178
v 0.777128 0.710000 -0.340000
v 0.726274 0.710000 -0.273726
v 0.660000 0.710000 -0.222872
v 0.582822 0.710000 -0.190904
v 0.500000 0.710000 -0.180000
v 0.417178 0.710000 -0.190904
v 0.340000 0.710000 -0.222872
v 0.273726 0.710000 -0.273726
v 0.222872 0.710000 -0.340000
v 0.190904 0.710000 -0.417178
v 0.180000 0.710000 -0.500000
v 0.190904 0.710000 -0.582822
v 0.222872 0.710000 -0.660000
v 0.273726 0.710000 -0.726274
v 0.340000 0.710000 -0.777128
v 0.417178 0.710000 -0.809096
v 0.500000 0.710000 -0.820000
v 0.582822 0.710000 -0.809096
v 0.660000 0.710000 -0.777128
v 0.726274 0.710000 -0.726274
v 0.777128 0.710000 -0.660000
v 0.809096 0.710000 -0.582822
v -0.180000 0.490000 0.500000
v -0.180000 0.710000 0.500000
v -0.190904 0.710000 0.582822
v -0.190904 0.490000 0.582822
v -0.190904 0.490000 0.582822
v -0.190904 0.710000 0.582822
v -0.222872 0.710000 0.660000
v -0.222872 0.490000 0.660000
v -0.222872 0.490000 0.660000
v -0.222872 0.710000 0.660000
v -0.273726 0.710000 0.726274
v -0.273726 0.490000 0.726274
v -0.273726 0.490000 0.726274
v -0.273726 0.710000 0.726274
v -0.340000 0.710000 0.777128
v -0.340000 0.490000 0.777128
v -0.340000 0.490000 0.777128
v -0.340000 0.710000 0.777128
v -0.417178 0.710000 0.809096
v -0.417178 0.490000 0.809096
v -0.417178 0.490000 0.809096
v -0.417178 0.710000 0.809096
v -0.500000 0.710000 0.820000
v -0.500000 0.490000 0.820000
v -0.500000 0.490000 0.820000
v -0.500000 0.710000 0.820000
v -0.582822 0.710000 0.809096
v -0.582822 0.490000 0.809096
v -0.582822 0.490000 0.809096
v -0.582822 0.710000 0.809096
v -0.660000 0.710000 0.777128
v -0.660000 0.490000 0.777128
v -0.660000 0.490000 0.777128
v -0.660000 0.710000 0.777128
v -0.726274 0.710000 0.726274
v -0.726274 0.490000 0.726274
v -0.726274 0.490000 0.726274
v -0.726274 0.710000 0.726274
v -0.777128 0.710000 0.660000
v -0.777128 0.490000 0.660000
v -0.777128 0.490000 0.660000
v -0.777128 0.710000 0.660000
v -0.809096 0.710000 0.582822
v -0.809096 0.490000 0.582822
v -0.809096 0.490000 0.582822
v -0.809096 0.710000 0.582822
v -0.820000 0.710000 0.500000
v -0.820000 0.490000 0.500000
v -0.820000 0.490000 0.500000
v -0.820000 0.710000 0.500000
v -0.809096 0.710000 0.417178
v -0.809096 0.490000 0.417178
v -0.809096 0.490000 0.417178
v -0.809096 0.710000 0.417178
v -0.777128 0.710000 0.340000
v -0.777128 0.490000 0.340000
v -0.777128 0.490000 0.340000
v -0.777128 0.710000 0.340000
v -0.726274 0.710000 0.273726
v -0.726274 0.490000 0.273726
v -0.726274 0.490000 0.273726
v -0.726274 0.710000 0.273726
v -0.660000 0.710000 0.222872
v -0.660000 0.490000 0.222872
v -0.660000 0.490000 0.222872
v -0.660000 0.710000 0.222872
v -0.582822 0.710000 0.190904
v -0.582822 0.490000 0.190904
v -0.582822 0.490000 0.190904
v -0.582822 0.710000 0.190904
v -0.500000 0.710000 0.180000
v -0.500000 0.490000 0.180000
v -0.500000 0.490000 0.180000
v -0.500000 0.710000 0.180000
v -0.417178 0.710000 0.190904
v -0.417178 0.490000 0.190904
v -0.417178 0.490000 0.190904
v -0.417178 0.710000 0.190904
v -0.340000 0.710000 0.222872
v -0.340000 0.490000 0.222872
v -0.340000 0.490000 0.222872
v -0.340000 0.710000 0.222872
v -0.273726 0.710000 0.273726
v -0.273726 0.490000 0.273726
v -0.273726 0.490000 0.273726
v -0.273726 0.710000 0.273726
v -0.222872 0.710000 0.340000
v -0.222872 0.490000 0.340000
v -0.222872 0.490000 0.340000
v -0.222872 0.710000 0.340000
v -0.190904 0.710000 0.417178
v -0.190904 0.490000 0.417178
v -0.190904 0.490000 0.417178
v -0.190904 0.710000 0.417178
v -0.180000 0.710000 0.500000
v -0.180000 0.490000 0.500000
v -0.500000 0.710000 0.500000
v -0.180000 0.710000 0.500000
v -0.190904 0.710000 0.582822
v -0.222872 0.710000 0.660000
v -0.273726 0.710000 0.726274
v -0.340000 0.710000 0.777128
v -0.417178 0.710000 0.809096
v -0.500000 0.710000 0.820000
v -0.582822 0.710000 0.809096
v -0.660000 0.710000 0.777128
v -0.726274 0.710000 0.726274
v -0.777128 0.710000 0.660000
v -0.809096 0.710000 0.582822
v -0.820000 0.710000 0.500000
v -0.809096 0.710000 0.417178
v -0.777128 0.710000 0.340000
v -0.726274 0.710000 0.273726
v -0.660000 0.710000 0.222872
v -0.582822 0.710000 0.190904
v -0.500000 0.710000 0.180000
v -0.417178 0.710000 0.190904
v -0.340000 0.710000 0.222872
v -0.273726 0.710000 0.273726
v -0.222872 0.710000 0.340000
v -0.190904 0.710000 0.417178
v 0.820000 0.490000 0.500000
v 0.820000 0.710000 0.500000
v 0.809096 0.710000 0.582822
v 0.809096 0.490000 0.582822
v 0.809096 0.490000 0.582822
v 0.809096 0.710000 0.582822
v 0.777128 0.710000 0.660000
v 0.777128 0.490000 0.660000
v 0.777128 0.490000 0.660000
v 0.777128 0.710000 0.660000
v 0.726274 0.710000 0.726274
v 0.726274 0.490000 0.726274
v 0.726274 0.490000 0.726274
v 0.726274 0.710000 0.726274
v 0.660000 0.710000 0.777128
v 0.660000 0.490000 0.777128
v 0.660000 0.490000 0.777128
v 0.660000 0.710000 0.777128
v 0.582822 0.710000 0.809096
v 0.582822 0.490000 0.809096
v 0.582822 0.490000 0.809096
v 0.582822 0.710000 0.809096
v 0.500000 0.710000 0.820000
v 0.500000 0.490000 0.820000
v 0.500000 0.490000 0.820000
v 0.500000 0.710000 0.820000
v 0.417178 0.710000 0.809096
v 0.417178 0.490000 0.809096
v 0.417178 0.490000 0.809096
v 0.417178 0.710000 0.809096
v 0.340000 0.710000 0.777128
v 0.340000 0.490000 0.777128
v 0.340000 0.490000 0.777128
v 0.340000 0.710000 0.777128
v 0.273726 0.710000 0.726274
v 0.273726 0.490000 0.726274
v 0.273726 0.490000 0.726274
v 0.273726 0.710000 0.726274
v 0.222872 0.710000 0.660000
v 0.222872 0.490000 0.660000
v 0.222872 0.490000 0.660000
v 0.222872 0.710000 0.660000
v 0.190904 0.710000 0.582822
v 0.190904 0.490000 0.582822
v 0.190904 0.490000 0.582822
v 0.190904 0.710000 0.582822
v 0.180000 0.710000 0.500000
v 0.180000 0.490000 0.500000
v 0.180000 0.490000 0.500000
v 0.180000 0.710000 0.500000
v 0.190904 0.710000 0.417178
v 0.190904 0.490000 0.417178
v 0.190904 0.490000 0.417178
v 0.190904 0.710000 0.417178
v 0.222872 0.710000 0.340000
v 0.222872 0.490000 0.340000
v 0.222872 0.490000 0.340000
v 0.222872 0.710000 0.340000
v 0.273726 0.710000 0.273726
v 0.273726 0.490000 0.273726
v 0.273726 0.490000 0.273726
v 0.273726 0.710000 0.273726
v 0.340000 0.710000 0.222872
v 0.340000 0.490000 0.222872
v 0.340000 0.490000 0.222872
v 0.340000 0.710000 0.222872
v 0.417178 0.710000 0.190904
v 0.417178 0.490000 0.190904
v 0.417178 0.490000 0.190904
v 0.417178 0.710000 0.190904
v 0.500000 0.710000 0.180000
v 0.500000 0.490000 0.180000
v 0.500000 0.490000 0.180000
v 0.500000 0.710000 0.180000
v 0.582822 0.710000 0.190904
v 0.582822 0.490000 0.190904
v 0.582822 0.490000 0.190904
v 0.582822 0.710000 0.190904
v 0.660000 0.710000 0.222872
v 0.660000 0.490000 0.222872
v 0.660000 0.490000 0.222872
v 0.660000 0.710000 0.222872
v 0.726274 0.710000 0.273726
v 0.726274 0.490000 0.273726
v 0.726274 0.490000 0.273726
v 0.726274 0.710000 0.273726
v 0.777128 0.710000 0.340000
v 0.777128 0.490000 0.340000
v 0.777128 0.490000 0.340000
v 0.777128 0.710000 0.340000
v 0.809096 0.710000 0.417178
v 0.809096 0.490000 0.417178
v 0.809096 0.490000 0.417178
v 0.809096 0.710000 0.417178
v 0.820000 0.710000 0.500000
v 0.820000 0.490000 0.500000
v 0.500000 0.710000 0.500000
v 0.820000 0.710000 0.500000
v 0.809096 0.710000 0.582822
v 0.777128 0.710000 0.660000
v 0.726274 0.710000 0.726274
v 0.660000 0.710000 0.777128
v 0.582822 0.710000 0.809096
v 0.500000 0.710000 0.820000
v 0.417178 0.710000 0.809096
v 0.340000 0.710000 0.777128
v 0.273726 0.710000 0.726274
v 0.222872 0.710000 0.660000
v 0.190904 0.710000 0.582822
v 0.180000 0.710000 0.500000
v 0.190904 0.710000 0.417178
v 0.222872 0.710000 0.340000
v 0.273726 0.710000 0.273726
v 0.340000 0.710000 0.222872
v 0.417178 0.710000 0.190904
v 0.500000 0.710000 0.180000
v 0.582822 0.710000 0.190904
v 0.660000 0.710000 0.222872
v 0.726274 0.710000 0.273726
v 0.777128 0.710000 0.340000
v 0.809096 0.710000 0.417178
f 1 2 3
f 1 3 4
f 5 6 7
f 5 7 8
f 9 10 11
f 9 11 12
f 13 14 15
f 13 15 16
f 17 18 19
f 17 19 20
f 21 22 23
f 21 23 24
f 25 26 27
f 25 27 28
f 29 30 31
f 29 31 32
f 33 34 35
f 33 35 36
f 37 38 39
f 37 39 40
f 41 42 43
f 41 43 44
f 45 46 47
f 45 47 48
f 49 50 51
f 49 51 52
f 53 54 55
f 53 55 56
f 57 58 59
f 57 59 60
f 61 62 63
f 61 63 64
f 65 66 67
f 65 67 68
f 69 70 71
f 69 71 72
f 73 74 75
f 73 75 76
f 77 78 79
f 77 79 80
f 81 82 83
f 81 83 84
f 85 86 87
f 85 87 88
f 89 90 91
f 89 91 92
f 93 94 95
f 93 95 96
f 97 98 99
f 97 99 100
f 101 102 103
f 101 103 104
f 105 106 107
f 105 107 108
f 109 110 111
f 109 111 112
f 113 114 115
f 113 115 116
f 117 118 119
f 117 119 120
f 121 122 123
f 121 123 124
f 125 126 127
f 125 127 128
f 129 130 131
f 129 131 132
f 133 134 135
f 133 135 136
f 137 138 139
f 137 139 140
f 141 142 143
f 141 143 144
f 145 146 147
f 145 147 148
f 149 150 151
f 149 151 152
f 153 154 155
f 153 155 156
f 157 158 159
f 157 159 160
f 161 162 163
f 161 163 164
f 165 166 167
f 165 167 168
f 169 170 171
f 169 171 172
f 173 174 175
f 173 175 176
f 177 178 179
f 177 179 180
f 181 182 183
f 181 183 184
f 185 186 187
f 185 187 188
f 189 190 191
f 189 191 192
f 193 194 195
f 193 195 196
f 197 198 199
f 197 199 200
f 201 202 203
f 201 203 204
f 205 206 207
f 205 207 208
f 209 210 211
f 209 211 212
f 213 214 215
f 213 215 216
f 217 218 219
f 217 219 220
f 221 222 223
f 221 223 224
f 225 226 227
f 225 227 228
f 229 230 231
f 229 231 232
f 233 234 235
f 233 235 236
f 237 238 239
f 237 239 240
f 241 242 243
f 241 243 244
f 245 246 247
f 245 247 248
f 249 250 251
f 249 251 252
f 253 254 255
f 253 255 256
f 257 258 259
f 257 259 260
f 261 262 263
f 261 263 264
f 265 266 267
f 265 267 268
f 269 270 271
f 269 271 272
f 273 274 275
f 273 275 276
f 277 278 279
f 277 279 280
f 281 282 283
f 281 283 284
f 285 286 287
f 285 287 288
f 289 290 291
f 289 291 292
f 293 294 295
f 293 295 296
f 297 298 299
f 297 299 300
f 301 302 303
f 301 303 304
f 305 306 307
f 305 307 308
f 309 310 311
f 309 311 312
f 313 314 315
f 313 315 316
f 317 318 319
f 317 319 320
f 321 322 323
f 321 323 324
f 325 326 327
f 325 327 328
f 329 330 331
f 329 331 332
f 333 334 335
f 333 335 336
f 337 338 339
f 337 339 340
f 341 342 343
f 341 343 344
f 345 346 347
f 345 347 348
f 349 350 351
f 349 351 352
f 353 354 355
f 353 355 356
f 357 358 359
f 357 359 360
f 361 362 363
f 361 363 364
f 365 366 367
f 365 367 368
f 369 370 371
f 369 371 372
f 373 374 375
f 373 375 376
f 379 378 377
f 380 379 377
f 381 380 377
f 382 381 377
f 383 382 377
f 384 383 377
f 385 384 377
f 386 385 377
f 387 386 377
f 388 387 377
f 389 388 377
f 390 389 377
f 391 390 377
f 392 391 377
f 393 392 377
f 394 393 377
f 395 394 377
f 396 395 377
f 397 396 377
f 398 397 377
f 399 398 377
f 400 399 377
f 401 400 377
f 378 401 377
f 402 403 404
f 402 404 405
f 406 407 408
f 406 408 409
f 410 411 412
f 410 412 413
f 414 415 416
f 414 416 417
f 418 419 420
f 418 420 421
f 422 423 424
f 422 424 425
f 426 427 428
f 426 428 429
f 430 431 432
f 430 432 433
f 434 435 436
f 434 436 437
f 438 439 440
f 438 440 441
f 442 443 444
f 442 444 445
f 446 447 448
f 446 448 449
f 450 451 452
f 450 452 453
f 454 455 456
f 454 456 457
f 458 459 460
f 458 460 461
f 462 463 464
f 462 464 465
f 466 467 468
f 466 468 469
f 470 471 472
f 470 472 473
f 474 475 476
f 474 476 477
f 478 479 480
f 478 480 481
f 482 483 484
f 482 484 485
f 486 487 488
f 486 488 489
f 490 491 492
f 490 492 493
f 494 495 496
f 494 496 497
f 500 499 498
f 501 500 498
f 502 501 498
f 503 502 498
f 504 503 498
f 505 504 498
f 506 505 498
f 507 506 498
f 508 507 498
f 509 508 498
f 510 509 498
f 511 510 498
f 512 511 498
f 513 512 498
f 514 513 498
f 515 514 498
f 516 515 498
f 517 516 498
f 518 517 498
f 519 518 498
f 520 519 498
f 521 520 498
f 522 521 498
f 499 522 498
f 523 524 525
f 523 525 526
f 527 528 529
f 527 529 530
f 531 532 533
f 531 533 534
f 535 536 537
f 535 537 538
f 539 540 541
f 539 541 542
f 543 544 545
f 543 545 546
f 547 548 549
f 547 549 550
f 551 552 553
f 551 553 554
f 555 556 557
f 555 557 558
f 559 560 561
f 559 561 562
f 563 564 565
f 563 565 566
f 567 568 569
f 567 569 570
f 571 572 573
f 571 573 574
f 575 576 577
f 575 577 578
f 579 580 581
f 579 581 582
f 583 584 585
f 583 585 586
f 587 588 589
f 587 589 590
f 591 592 593
f 591 593 594
f 595 596 597
f 595 597 598
f 599 600 601
f 599 601 602
f 603 604 605
f 603 605 606
f 607 608 609
f 607 609 610
f 611 612 613
f 611 613 614
f 615 616 617
f 615 617 618
f 621 620 619
f 622 621 619
f 623 622 619
f 624 623 619
f 625 624 619
f 626 625 619
f 627 626 619
f 628 627 619
f 629 628 619
f 630 629 619
f 631 630 619
f 632 631 619
f 633 632 619
f 634 633 619
f 635 634 619
f 636 635 619
f 637 636 619
f 638 637 619
f 639 638 619
f 640 639 619
f 641 640 619
f 642 641 619
f 643 642 619
f 620 643 619
f 644 645 646
f 644 646 647
f 648 649 650
f 648 650 651
f 652 653 654
f 652 654 655
f 656 657 658
f 656 658 659
f 660 661 662
f 660 662 663
f 664 665 666
f 664 666 667
f 668 669 670
f 668 670 671
f 672 673 674
f 672 674 675
f 676 677 678
f 676 678 679
f 680 681 682
f 680 682 683
f 684 685 686
f 684 686 687
f 688 689 690
f 688 690 691
f 692 693 694
f 692 694 695
f 696 697 698
f 696 698 699
f 700 701 702
f 700 702 703
f 704 705 706
f 704 706 707
f 708 709 710
f 708 710 711
f 712 713 714
f 712 714 715
f 716 717 718
f 716 718 719
f 720 721 722
f 720 722 723
f 724 725 726
f 724 726 727
f 728 729 730
f 728 730 731
f 732 733 734
f 732 734 735
f 736 737 738
f 736 738 739
f 742 741 740
f 743 742 740
f 744 743 740
f 745 744 740
f 746 745 740
f 747 746 740
f 748 747 740
f 749 748 740
f 750 749 740
f 751 750 740
f 752 751 740
f 753 752 740
f 754 753 740
f 755 754 740
f 756 755 740
f 757 756 740
f 758 757 740
f 759 758 740
f 760 759 740
f 761 760 740
f 762 761 740
f 763 762 740
f 764 763 740
f 741 764 740
